<svg width="351" height="118" viewBox="0 0 351 118" fill="none" xmlns="http://www.w3.org/2000/svg">
<path d="M1.79261 0.363635V44H10.7415V15.4915H11.1037L22.3963 43.7869H28.4901L39.7827 15.598H40.1449V44H49.0938V0.363635H37.7159L25.6989 29.6818H25.1875L13.1705 0.363635H1.79261ZM65.8569 44.6179C70.6935 44.6179 73.8256 42.5085 75.4237 39.4616H75.6793V44H84.2873V21.9261C84.2873 14.1278 77.6822 10.8466 70.3952 10.8466C62.5543 10.8466 57.3981 14.5966 56.141 20.5625L64.5359 21.2443C65.1538 19.071 67.0927 17.473 70.3526 17.473C73.4421 17.473 75.2106 19.0284 75.2106 21.7131V21.8409C75.2106 23.9503 72.9734 24.2273 67.2844 24.7812C60.8072 25.3778 54.9904 27.5511 54.9904 34.8594C54.9904 41.3366 59.614 44.6179 65.8569 44.6179ZM68.4563 38.3537C65.6651 38.3537 63.6623 37.054 63.6623 34.5611C63.6623 32.0043 65.7717 30.7472 68.9677 30.2997C70.9492 30.0227 74.1879 29.554 75.2745 28.8295V32.3026C75.2745 35.733 72.4407 38.3537 68.4563 38.3537ZM91.3292 44H100.406V33.6023L102.856 30.8111L111.784 44H122.416L109.653 25.4418L121.798 11.2727H111.379L100.896 23.6946H100.406V0.363635H91.3292V44ZM139.818 44.6392C147.915 44.6392 153.369 40.6974 154.648 34.625L146.253 34.071C145.337 36.5639 142.993 37.8636 139.967 37.8636C135.429 37.8636 132.553 34.8594 132.553 29.9801V29.9588H154.839V27.4659C154.839 16.3438 148.107 10.8466 139.456 10.8466C129.825 10.8466 123.582 17.6861 123.582 27.7855C123.582 38.1619 129.74 44.6392 139.818 44.6392ZM132.553 24.3338C132.744 20.6051 135.578 17.6222 139.605 17.6222C143.547 17.6222 146.274 20.4347 146.295 24.3338H132.553ZM174.82 44H183.769V38.7585H184.174C185.431 41.4858 188.179 44.5327 193.463 44.5327C200.921 44.5327 206.738 38.6307 206.738 27.679C206.738 16.429 200.665 10.8466 193.485 10.8466C188.009 10.8466 185.388 14.1065 184.174 16.7699H183.897V0.363635H174.82V44ZM183.705 27.6364C183.705 21.7983 186.176 18.0696 190.587 18.0696C195.083 18.0696 197.469 21.9688 197.469 27.6364C197.469 33.3466 195.04 37.3097 190.587 37.3097C186.219 37.3097 183.705 33.4744 183.705 27.6364ZM227.709 44.6392C235.805 44.6392 241.26 40.6974 242.538 34.625L234.143 34.071C233.227 36.5639 230.884 37.8636 227.858 37.8636C223.32 37.8636 220.443 34.8594 220.443 29.9801V29.9588H242.73V27.4659C242.73 16.3438 235.997 10.8466 227.347 10.8466C217.716 10.8466 211.473 17.6861 211.473 27.7855C211.473 38.1619 217.631 44.6392 227.709 44.6392ZM220.443 24.3338C220.635 20.6051 223.469 17.6222 227.496 17.6222C231.438 17.6222 234.165 20.4347 234.186 24.3338H220.443ZM266.061 11.2727H259.903V3.43182H250.827V11.2727H246.352V18.0909H250.827V35.1364C250.784 41.5497 255.152 44.7244 261.736 44.4474C264.08 44.3622 265.741 43.8935 266.658 43.5952L265.23 36.8409C264.783 36.9261 263.824 37.1392 262.972 37.1392C261.161 37.1392 259.903 36.4574 259.903 33.9432V18.0909H266.061V11.2727ZM289.381 11.2727H283.224V3.43182H274.147V11.2727H269.673V18.0909H274.147V35.1364C274.104 41.5497 278.472 44.7244 285.056 44.4474C287.4 44.3622 289.062 43.8935 289.978 43.5952L288.55 36.8409C288.103 36.9261 287.144 37.1392 286.292 37.1392C284.481 37.1392 283.224 36.4574 283.224 33.9432V18.0909H289.381V11.2727ZM309.857 44.6392C317.954 44.6392 323.408 40.6974 324.687 34.625L316.292 34.071C315.376 36.5639 313.032 37.8636 310.006 37.8636C305.468 37.8636 302.592 34.8594 302.592 29.9801V29.9588H324.879V27.4659C324.879 16.3438 318.146 10.8466 309.495 10.8466C299.864 10.8466 293.621 17.6861 293.621 27.7855C293.621 38.1619 299.779 44.6392 309.857 44.6392ZM302.592 24.3338C302.783 20.6051 305.617 17.6222 309.644 17.6222C313.586 17.6222 316.313 20.4347 316.335 24.3338H302.592ZM330.802 44H339.879V25.4844C339.879 21.4574 342.819 18.6875 346.825 18.6875C348.082 18.6875 349.808 18.9006 350.66 19.1776V11.1236C349.85 10.9318 348.721 10.804 347.805 10.804C344.14 10.804 341.136 12.9347 339.942 16.983H339.602V11.2727H330.802V44ZM16.4091 117.639C25.1236 117.639 30.5994 112.526 31.0256 105.004H22.4602C21.9276 108.499 19.6264 110.459 16.5156 110.459C12.2756 110.459 9.52699 106.901 9.52699 100.636C9.52699 94.4574 12.2969 90.9205 16.5156 90.9205C19.8395 90.9205 21.9702 93.1151 22.4602 96.375H31.0256C30.642 88.8111 24.9105 83.8466 16.3665 83.8466C6.4375 83.8466 0.301136 90.7287 0.301136 100.764C0.301136 110.714 6.33097 117.639 16.4091 117.639ZM51.6239 117.639C61.5529 117.639 67.7319 110.842 67.7319 100.764C67.7319 90.6222 61.5529 83.8466 51.6239 83.8466C41.695 83.8466 35.516 90.6222 35.516 100.764C35.516 110.842 41.695 117.639 51.6239 117.639ZM51.6665 110.608C47.0856 110.608 44.7418 106.411 44.7418 100.7C44.7418 94.9901 47.0856 90.7713 51.6665 90.7713C56.1623 90.7713 58.506 94.9901 58.506 100.7C58.506 106.411 56.1623 110.608 51.6665 110.608ZM91.2333 84.2727H84.7347V82.0781C84.7347 79.8622 85.6296 78.5625 88.293 78.5625C89.3796 78.5625 90.4876 78.7969 91.212 79.0312L92.81 72.2131C91.6808 71.8722 89.1879 71.3182 86.3967 71.3182C80.239 71.3182 75.658 74.7912 75.658 81.9077V84.2727H71.0344V91.0909H75.658V117H84.7347V91.0909H91.2333V84.2727ZM114.378 84.2727H107.879V82.0781C107.879 79.8622 108.774 78.5625 111.438 78.5625C112.524 78.5625 113.632 78.7969 114.357 79.0312L115.955 72.2131C114.825 71.8722 112.332 71.3182 109.541 71.3182C103.384 71.3182 98.8026 74.7912 98.8026 81.9077V84.2727H94.179V91.0909H98.8026V117H107.879V91.0909H114.378V84.2727ZM133.666 117.639C141.762 117.639 147.217 113.697 148.495 107.625L140.1 107.071C139.184 109.564 136.841 110.864 133.815 110.864C129.277 110.864 126.4 107.859 126.4 102.98V102.959H148.687V100.466C148.687 89.3438 141.954 83.8466 133.304 83.8466C123.673 83.8466 117.43 90.6861 117.43 100.786C117.43 111.162 123.588 117.639 133.666 117.639ZM126.4 97.3338C126.592 93.6051 129.426 90.6222 133.453 90.6222C137.395 90.6222 140.122 93.4347 140.143 97.3338H126.4ZM169.525 117.639C177.622 117.639 183.076 113.697 184.355 107.625L175.96 107.071C175.044 109.564 172.7 110.864 169.674 110.864C165.136 110.864 162.26 107.859 162.26 102.98V102.959H184.547V100.466C184.547 89.3438 177.814 83.8466 169.163 83.8466C159.532 83.8466 153.289 90.6861 153.289 100.786C153.289 111.162 159.447 117.639 169.525 117.639ZM162.26 97.3338C162.451 93.6051 165.285 90.6222 169.312 90.6222C173.254 90.6222 175.981 93.4347 176.002 97.3338H162.26Z" fill="black"/>
</svg>
